<?xml version="1.0" encoding="UTF-8"?>
<svg id="Layer_3" xmlns="http://www.w3.org/2000/svg" version="1.1" viewBox="0 0 2000 2000">
  <!-- Generator: Adobe Illustrator 29.0.1, SVG Export Plug-In . SVG Version: 2.1.0 Build 192)  -->
  <defs>
    <style>
      .st0 {
        fill: #1d1d1b;
      }
    </style>
  </defs>
  <path class="st0" d="M1295.23,1476.37l-.66,1.03c.23-.31.46-.65.66-1.03Z"/>
  <path class="st0" d="M1513.58,633.06c46.75-77.71,59.21-178.37,35.97-292.62-18.42-90.52-52.41-157.62-53.85-160.43l-17.79-34.77-105.33,69.47c-10.04,6.62-18.29,15.6-24.03,26.16l-98.58,181.27c-11.19,20.57-23.9,40.28-38.03,58.96l-68.88,91.08,57.06,50.06,88.03-118.13c2.73-3.32,7.9-9.61,9.97-13.38l108.22-211.87,49.5-32c33.56,70.92,86.27,244.78-.9,369.75l-11.35,16.27,11.01,16.51c76.85,115.28,118.33,194.82,143.04,264.64,22.91,64.74,2.93,136.64-48.9,181.71-125.28,108.95-215.63,235.94-231.49,274.34-20.16,48.8-15.64,94.71-22.02,106.31l29.67-46.06c7.68-10.03,16.19-21.54,25.2-33.72,59.53-80.56,160.91-196.42,326.96-308.83l28.98-20.07c-18.36-123.91-67.84-245.23-192.47-434.64Z"/>
  <path class="st0" d="M1422.51,1154.88c108.57-118.15,133.64-148.86,126.85-176.97-8.96-56.14-33.64-117.61-71.43-177.87-4.02-6.4-8.18-12.72-12.43-18.98l-.39-2.41c-.38.06-.73.12-1.11.18-39.66-58.02-88.23-108.99-134.04-140.8,0,0,7.33-4.51,29.36-43.85,22.02-39.34,81.09-262.29,40.98-167.11-40.11,95.19-98.47,173.11-147.99,232.75l25.13,13.88c38.93,21.5,84.47,65.01,123.11,116.43-74.86,14.72-96.61,25.59-126.48,40.53-6.01,3.01-12.23,6.12-19.33,9.45-54.36,25.5-130.51,66.75-164.03,130.25-32.9,62.33-43.14,189.98-32.4,240.27,3.43,16.06,16.25,44.23,85.55,120.12,21.4,23.44,42.2,44.84,56.07,58.86-.7,6.65-1.37,13.31-2.03,19.91-5.17,51.45-11.04,109.77-27.03,134.41-20.38,31.4-62.83,77.39-144.92,106.43l39.05,21.69c26.91,21.48,55.58,5.83,85.04-22.03,40.95-38.72,54.29-50.79,69.64-74.43,23.66-36.47,29.71-96.6,36.11-160.26,2.2-21.88,4.28-42.55,7.06-61.61.61-4.14,6.05-21.9,50.78-76.34,31.03-37.77,70.62-80.85,108.91-122.52ZM1213.48,1320.22c-49.87-52.4-94.35-105.3-98.3-121.72-7.5-35.14.24-150.34,26.96-200.96,25.36-48.05,90.5-82.78,137.29-104.73,7.77-3.65,14.32-6.92,20.66-10.09,28.52-14.27,48.55-24.28,135.71-40,29.01,48.78,48.15,97.43,55.66,141.65-10.41,20.84-68.7,84.27-111.78,131.16-86.49,94.11-145.06,159.73-166.19,204.7Z"/>
  <path class="st0" d="M1431.45,954.4l-13.08-38.34-43.63,14.76c-25.61,151.92-198.64,133.13-198.64,133.13,0,0-20.93,92.55-9.64,124.41,11.3,31.86,40.49,51.2,40.49,51.2,11.19-128.53,248.46-183.35,224.5-285.17Z"/>
  <path class="st0" d="M907.75,1438.84c-19.68-1.68-38.51,10.09-45.21,29.34l-.06.17c-6.9,19.82-1.04,41.84,14.78,55.61l79.64,69.33c10.21,8.89,23.17,12.83,35.89,11.97,1.98.16,3.97.17,5.96.08,1.99.08,3.98.07,5.96-.08,12.72.86,25.68-3.08,35.89-11.97l79.64-69.33c15.83-13.78,21.68-35.8,14.78-55.61l-.06-.17c-6.7-19.25-25.53-31.02-45.21-29.34-4.82-.4-9.77-.04-14.7,1.24-20.89,5.46-47.22,10.36-76.3,11.22-29.07-.86-55.4-5.76-76.3-11.22-4.93-1.29-9.88-1.64-14.7-1.24Z"/>
  <polygon class="st0" points="1002.39 1690.61 1001.39 1690.07 998.75 1691.48 996.11 1690.07 995.11 1690.61 994.1 1690.07 890.84 1745.29 956.48 1754.46 994.14 1760 995.11 1759.86 996.07 1760 998.75 1759.6 1001.43 1760 1002.39 1759.86 1003.36 1760 1041.01 1754.46 1106.65 1745.29 1003.39 1690.07 1002.39 1690.61"/>
  <path class="st0" d="M999.52,557.87l-.77.63-.77-.63-36.31,30.84-204.65,166.68,204.03,176.56,36.91,33.31.79-.68.79.68,36.91-33.31,204.03-176.56-204.65-166.68-36.31-30.84ZM853.69,756.72l145.06-123.18,145.06,123.18-145.06,130.88-145.06-130.88Z"/>
  <path class="st0" d="M702.27,1476.37c.21.38.43.73.66,1.03l-.66-1.03Z"/>
  <path class="st0" d="M448.75,1095.73c-51.82-45.07-71.81-116.96-48.9-181.71,24.71-69.83,66.18-149.36,143.04-264.64l11.01-16.51-11.35-16.27c-87.16-124.97-34.46-298.84-.9-369.75l49.49,32,108.22,211.87c2.07,3.77,7.25,10.06,9.97,13.38l88.03,118.13,57.06-50.06-68.88-91.08c-14.13-18.68-26.84-38.39-38.03-58.96l-98.58-181.27c-5.74-10.56-14-19.55-24.03-26.16l-105.33-69.47-17.79,34.77c-1.44,2.81-35.44,69.91-53.85,160.43-23.24,114.26-10.78,214.91,35.97,292.62-124.62,189.41-174.11,310.73-192.47,434.64l28.98,20.07c166.05,112.4,267.43,228.26,326.96,308.83,9.01,12.18,17.51,23.69,25.2,33.72l29.67,46.06c-6.39-11.6-1.87-57.51-22.02-106.31-15.86-38.4-106.21-165.39-231.49-274.34Z"/>
  <path class="st0" d="M932.52,1672.07l39.05-21.69c-82.09-29.04-124.54-75.04-144.92-106.43-15.99-24.64-21.86-82.96-27.03-134.41-.66-6.59-1.34-13.25-2.03-19.91,13.87-14.02,34.67-35.42,56.07-58.86,69.3-75.89,82.12-104.06,85.55-120.12,10.74-50.29.49-177.94-32.4-240.27-33.52-63.5-109.66-104.74-164.03-130.25-7.1-3.33-13.32-6.44-19.33-9.45-29.87-14.94-51.62-25.81-126.48-40.53,38.64-51.41,84.18-94.93,123.11-116.43l25.13-13.88c-49.53-59.64-107.89-137.56-147.99-232.75-40.11-95.19,18.96,127.77,40.98,167.11,22.02,39.34,29.35,43.85,29.35,43.85-45.81,31.82-94.38,82.78-134.04,140.8-.38-.06-.73-.12-1.11-.18l-.39,2.41c-4.24,6.26-8.41,12.57-12.43,18.98-37.79,60.26-62.47,121.73-71.43,177.87-6.8,28.1,18.27,58.82,126.85,176.97,38.29,41.67,77.88,84.75,108.91,122.52,44.73,54.44,50.17,72.19,50.78,76.34,2.78,19.06,4.86,39.73,7.06,61.61,6.4,63.66,12.45,123.79,36.11,160.26,15.34,23.64,28.68,35.71,69.64,74.43,29.46,27.85,58.13,43.51,85.04,22.03ZM617.83,1115.52c-43.08-46.88-101.38-110.32-111.78-131.16,7.5-44.22,26.65-92.87,55.66-141.65,87.15,15.72,107.18,25.72,135.71,40,6.33,3.17,12.89,6.45,20.66,10.09,46.79,21.95,111.93,56.69,137.29,104.73,26.72,50.62,34.46,165.82,26.96,200.96-3.95,16.42-48.43,69.32-98.3,121.72-21.13-44.97-79.71-110.58-166.19-204.7Z"/>
  <polygon class="st0" points="897.5 540.36 899.63 543.37 998.75 485.45 1097.87 543.37 1100 540.36 1105.15 543.37 1179.71 438.06 1172.42 438.06 825.08 438.06 817.79 438.06 892.34 543.37 897.5 540.36"/>
  <path class="st0" d="M790.55,1239.56s29.19-19.34,40.49-51.2c11.3-31.86-9.64-124.41-9.64-124.41,0,0-173.03,18.78-198.64-133.13l-43.63-14.76-13.08,38.34c-23.96,101.82,213.3,156.63,224.5,285.17Z"/>
</svg>
